Yo Yo Honey Singh - Bring Me Back (2013) 720p x264 AAC - SceneDL

General
Complete name                    : Yo Yo Honey Singh - Bring Me Back (2013) 720p x264 AAC.mp4
Format                           : MPEG-4
Format profile                   : Base Media
Codec ID                         : isom
File size                        : 42.6 MiB
Duration                         : 4mn 6s
Overall bit rate                 : 1 450 Kbps
Writing application              : Lavf52.93.0
Comment                          : SceneDL

Video
ID                               : 1
Format                           : AVC
Format/Info                      : Advanced Video Codec
Format profile                   : High@L3.1
Format settings, CABAC           : Yes
Format settings, ReFrames        : 3 frames
Codec ID                         : avc1
Codec ID/Info                    : Advanced Video Coding
Duration                         : 4mn 6s
Bit rate mode                    : Variable
Bit rate                         : 1 300 Kbps
Width                            : 1 280 pixels
Height                           : 720 pixels
Display aspect ratio             : 2.40:1
Frame rate mode                  : Constant
Frame rate                       : 30.000 fps
Color space                      : YUV
Chroma subsampling               : 4:2:0
Bit depth                        : 8 bits
Scan type                        : Progressive
Bits/(Pixel*Frame)               : 0.047
Stream size                      : 38.9 MiB (91%)
Writing library                  : x264 core 112

Audio
ID                               : 2
Format                           : AAC
Format/Info                      : Advanced Audio Codec
Format profile                   : LC
Codec ID                         : 40
Duration                         : 4mn 6s
Bit rate mode                    : Variable
Bit rate                         : 119 Kbps
Channel(s)                       : 2 channels
Channel positions                : Front: L R
Sampling rate                    : 48.0 KHz
Compression mode                 : Lossy
Stream size                      : 3.49 MiB (8%)
Language                         : English, Punjabi

ScreenShots
 
http://beeimg.com/images/e74753678101.jpg 
http://beeimg.com/images/q87650875421.jpg 
http://beeimg.com/images/t92849963682.jpg 
http://beeimg.com/images/w29962147021.jpg 
http://beeimg.com/images/u60836526681.jpg 
http://beeimg.com/images/t74318339462.jpg 
http://beeimg.com/images/a35290127631.jpg

By:

SceneDL